<svg width="24" height="25" viewBox="0 0 24 25" fill="none" xmlns="http://www.w3.org/2000/svg">
<path d="M11.2301 24.9991C11.7033 24.9882 12.1574 24.8103 12.5121 24.4969C12.8667 24.1834 13.0991 23.7547 13.1681 23.2864H9.21695C9.28792 23.7674 9.53118 24.2062 9.9015 24.5213C10.2718 24.8363 10.744 25.0061 11.2301 24.9991Z" fill="#3692EB"/>
<path d="M22.385 20.3793L22.1296 20.154C21.405 19.5084 20.7708 18.7681 20.2441 17.9531C19.6689 16.8282 19.3241 15.5998 19.2301 14.3399V10.6291C19.227 10.1784 19.1868 9.72864 19.1099 9.28451C17.8375 9.02297 16.6945 8.32978 15.8746 7.32227C15.0546 6.31477 14.608 5.05486 14.6103 3.75586V3.28262C13.8261 2.89666 12.9834 2.64286 12.1164 2.53145V1.58497C12.1164 1.31901 12.0108 1.06394 11.8227 0.875872C11.6347 0.687807 11.3796 0.582153 11.1136 0.582153C10.8477 0.582153 10.5926 0.687807 10.4045 0.875872C10.2165 1.06394 10.1108 1.31901 10.1108 1.58497V2.56901C8.16956 2.84285 6.39292 3.80976 5.1089 5.29121C3.82488 6.77267 3.12017 8.66865 3.12488 10.6291V14.3399C3.0308 15.5998 2.68603 16.8282 2.1108 17.9531C1.59315 18.7661 0.969161 19.5063 0.255399 20.154L0 20.3793V22.4977H22.385V20.3793Z" fill="#3692EB"/>
<path d="M20.2441 7.51174C22.3184 7.51174 24 5.83018 24 3.75587C24 1.68156 22.3184 0 20.2441 0C18.1698 0 16.4883 1.68156 16.4883 3.75587C16.4883 5.83018 18.1698 7.51174 20.2441 7.51174Z" fill="#FF4588"/>
</svg>
