<svg width="102" height="95" viewBox="0 0 102 95" fill="none" xmlns="http://www.w3.org/2000/svg">
<path d="M51.7148 78.464C47.5891 80.5404 45.9505 85.5969 48.0275 89.7237C50.1045 93.8505 55.1419 95.5469 59.2676 93.4705C63.3932 91.394 65.0694 86.3186 62.9924 82.1919C60.9153 78.0651 55.8404 76.3875 51.7148 78.464ZM0.888204 33.5157C1.92671 35.5791 4.46417 36.4178 6.527 35.3796L10.2776 33.4919L38.1112 55.1711L37.6551 66.8734C37.4473 73.2786 44.1257 77.5816 49.8266 74.7123L91.0831 53.9478C93.1459 52.9096 93.984 50.3719 92.9455 48.3085C91.907 46.2451 89.3695 45.4064 87.3067 46.4446L46.0502 67.2091L46.3994 57.6294L74.3413 43.5662C77.1543 42.1504 78.8555 39.3664 78.96 36.3985L80.1327 5.29259C80.1626 4.56485 80.002 3.84187 79.6667 3.19521C79.3315 2.54854 78.8333 2.0006 78.2213 1.6056C77.6094 1.21059 76.905 0.982226 76.1778 0.943093C75.4506 0.903955 74.7258 1.05541 74.0752 1.38247L18.5664 29.3202L13.3534 25.2201C12.7296 24.7314 11.9797 24.4305 11.1912 24.3527C10.4028 24.2749 9.60861 24.4233 8.90157 24.7806L2.7506 27.8764C0.687769 28.9146 -0.150307 31.4523 0.888204 33.5157ZM89.2207 59.5871C85.0951 61.6636 83.4564 66.7201 85.5334 70.8469C87.6105 74.9737 92.6479 76.6701 96.7735 74.5937C100.899 72.5172 102.575 67.4418 100.498 63.315C98.4213 59.1882 93.3464 57.5107 89.2207 59.5871Z" fill="white" fill-opacity="0.13"/>
</svg>
