<svg width="78" height="82" viewBox="0 0 78 82" fill="none" xmlns="http://www.w3.org/2000/svg">
<path d="M44.0452 5.0359L37.3874 8.75614C33.2765 1.39925 23.9882 -1.22988 16.6313 2.88099C9.27439 6.99186 6.64526 16.2802 10.7561 23.6371L4.09831 27.3574C0.436507 29.4035 -0.885403 34.0736 1.16073 37.7354L23.4822 77.6824C25.5283 81.3442 30.1985 82.6661 33.8603 80.6199L73.8072 58.2985C77.469 56.2523 78.7909 51.5822 76.7448 47.9204L54.4233 7.97348C52.3772 4.31168 47.707 2.98977 44.0452 5.0359ZM24.8544 33.2325C25.8775 35.0634 25.2166 37.3985 23.3857 38.4216C21.5548 39.4446 19.2197 38.7837 18.1966 36.9528L14.4764 30.2949L21.1342 26.5747L24.8544 33.2325ZM20.3515 9.53881C24.0133 7.49268 28.6835 8.81459 30.7296 12.4764L17.414 19.9169C15.3678 16.2551 16.6897 11.5849 20.3515 9.53881ZM44.8279 22.0718C45.851 23.9027 45.19 26.2378 43.3591 27.2608C41.5282 28.2839 39.1932 27.6229 38.1701 25.792L34.4498 19.1342L41.1077 15.414L44.8279 22.0718Z" fill="white" fill-opacity="0.13"/>
</svg>
