<svg width="96" height="73" viewBox="0 0 96 73" fill="none" xmlns="http://www.w3.org/2000/svg">
<path d="M73.1336 10.5864L63.7035 13.4653L61.3701 5.82187C60.0868 1.61801 55.6419 -0.785146 51.4927 0.481529L6.22796 14.2998C2.07869 15.5665 -0.266155 20.0424 1.01719 24.2462L11.5173 58.6415C12.8006 62.8453 17.2455 65.2485 21.3947 63.9818C23.3314 70.3258 29.9493 73.9038 36.2109 71.9923C42.4725 70.0808 45.9638 63.4167 44.0271 57.0727L66.6594 50.1635C68.5961 56.5075 75.214 60.0856 81.4756 58.174C87.7373 56.2625 91.2285 49.5984 89.2918 43.2544L93.0639 42.1029C95.1385 41.4695 96.3109 39.2316 95.6692 37.1297L91.7842 24.4034C91.2826 22.7601 90.2645 21.3162 88.8754 20.278L76.618 11.1939C75.6096 10.4573 74.303 10.2295 73.1336 10.5864ZM33.8776 64.3489C31.8029 64.9823 29.5805 63.7807 28.9388 61.6788C28.2972 59.5768 29.4696 57.3389 31.5442 56.7055C33.6189 56.0722 35.8413 57.2738 36.483 59.3757C37.1246 61.4776 35.9522 63.7156 33.8776 64.3489ZM74.8837 16.319L85.1936 23.6162L68.3702 28.752L65.4535 19.1978L74.8837 16.319ZM79.1423 50.5306C77.0677 51.164 74.8452 49.9624 74.2036 47.8605C73.5619 45.7586 74.7343 43.5206 76.8089 42.8873C78.8836 42.2539 81.106 43.4555 81.7477 45.5574C82.3893 47.6594 81.2169 49.8973 79.1423 50.5306Z" fill="white" fill-opacity="0.13"/>
</svg>
